<svg xmlns="http://www.w3.org/2000/svg" viewBox="0 0 240 240">
<defs><mask id="m1"><rect x="8" y="8" width="224" height="224" fill="#fff"/><g fill="#000"><circle cx="8.0" cy="8.0" r="8.6"/><circle cx="8.0" cy="232.0" r="8.6"/><circle cx="8.0" cy="8.0" r="8.6"/><circle cx="232.0" cy="8.0" r="8.6"/><circle cx="32.9" cy="8.0" r="8.6"/><circle cx="32.9" cy="232.0" r="8.6"/><circle cx="8.0" cy="32.9" r="8.6"/><circle cx="232.0" cy="32.9" r="8.6"/><circle cx="57.8" cy="8.0" r="8.6"/><circle cx="57.8" cy="232.0" r="8.6"/><circle cx="8.0" cy="57.8" r="8.6"/><circle cx="232.0" cy="57.8" r="8.6"/><circle cx="82.7" cy="8.0" r="8.6"/><circle cx="82.7" cy="232.0" r="8.6"/><circle cx="8.0" cy="82.7" r="8.6"/><circle cx="232.0" cy="82.7" r="8.6"/><circle cx="107.6" cy="8.0" r="8.6"/><circle cx="107.6" cy="232.0" r="8.6"/><circle cx="8.0" cy="107.6" r="8.6"/><circle cx="232.0" cy="107.6" r="8.6"/><circle cx="132.4" cy="8.0" r="8.6"/><circle cx="132.4" cy="232.0" r="8.6"/><circle cx="8.0" cy="132.4" r="8.6"/><circle cx="232.0" cy="132.4" r="8.6"/><circle cx="157.3" cy="8.0" r="8.6"/><circle cx="157.3" cy="232.0" r="8.6"/><circle cx="8.0" cy="157.3" r="8.6"/><circle cx="232.0" cy="157.3" r="8.6"/><circle cx="182.2" cy="8.0" r="8.6"/><circle cx="182.2" cy="232.0" r="8.6"/><circle cx="8.0" cy="182.2" r="8.6"/><circle cx="232.0" cy="182.2" r="8.6"/><circle cx="207.1" cy="8.0" r="8.6"/><circle cx="207.1" cy="232.0" r="8.6"/><circle cx="8.0" cy="207.1" r="8.6"/><circle cx="232.0" cy="207.1" r="8.6"/><circle cx="232.0" cy="8.0" r="8.6"/><circle cx="232.0" cy="232.0" r="8.6"/><circle cx="8.0" cy="232.0" r="8.6"/><circle cx="232.0" cy="232.0" r="8.6"/></g></mask><clipPath id="c1"><rect x="24" y="24" width="192" height="192"/></clipPath></defs>
<rect x="8" y="8" width="224" height="224" fill="#ffffff" mask="url(#m1)"/>
<rect x="24" y="24" width="192" height="192" fill="#2c4a6e"/>
<g clip-path="url(#c1)"><circle cx="120" cy="96" r="62" fill="#3b618d"/><g fill="#ffffff" opacity=".13"><circle cx="92" cy="109" r="1.8"/><circle cx="133" cy="154" r="1.8"/><circle cx="55" cy="49" r="1.8"/><circle cx="134" cy="172" r="2.4"/><circle cx="47" cy="88" r="3"/><circle cx="169" cy="124" r="2.4"/><circle cx="76" cy="59" r="2.4"/><circle cx="86" cy="38" r="3"/><circle cx="98" cy="101" r="1.8"/><circle cx="74" cy="111" r="2.4"/><circle cx="192" cy="127" r="1.8"/><circle cx="187" cy="118" r="3"/><circle cx="131" cy="161" r="1.8"/><circle cx="77" cy="95" r="2.4"/><circle cx="103" cy="54" r="3"/><circle cx="108" cy="33" r="2.4"/><circle cx="178" cy="111" r="3"/><circle cx="81" cy="137" r="2.4"/><circle cx="185" cy="105" r="2.4"/><circle cx="147" cy="73" r="1.8"/><circle cx="110" cy="98" r="1.8"/><circle cx="52" cy="43" r="2.4"/></g>
<polygon points="203.1,156.0 120.0,204.0 36.9,156.0 36.9,184.8 120.0,232.8 203.1,184.8" fill="#223a59" opacity=".14"/><polygon points="36.9,156.0 120.0,204.0 120.0,177.6 36.9,129.6" fill="#2f84c0" stroke="#223a59" stroke-width="3" stroke-linejoin="round"/><polygon points="203.1,156.0 120.0,204.0 120.0,177.6 203.1,129.6" fill="#4fa3db" stroke="#223a59" stroke-width="3" stroke-linejoin="round"/><polygon points="120.0,81.6 203.1,129.6 120.0,177.6 36.9,129.6" fill="#6fb6e6" stroke="#223a59" stroke-width="3" stroke-linejoin="round"/><polygon points="201.1,153.0 125.2,196.8 125.2,178.8 201.1,135.0" fill="#ffffff" stroke="#223a59" stroke-width="2.4000000000000004" stroke-linejoin="round"/><path d="M199.0 149.7L132.5 188.1" stroke="#dfeaf3" stroke-width="1.4" fill="none" /><path d="M199.0 145.2L132.5 183.6" stroke="#dfeaf3" stroke-width="1.4" fill="none" /><path d="M199.0 140.7L132.5 179.1" stroke="#dfeaf3" stroke-width="1.4" fill="none" /><polygon points="125.2,196.8 125.2,178.8 132.5,183.6" fill="#dfeaf3" /><path d="M41.0 136.6L113.8 178.6" stroke="#ffffff" stroke-width="2.2" fill="none" stroke-dasharray="14 5 40 5" stroke-linecap="round" opacity=".75"/><polygon points="120.0,93.6 182.4,129.6 120.0,165.6 57.6,129.6" fill="#5cc0a8" stroke="#222.6a59" stroke-width="3" stroke-linejoin="round" stroke-linecap="round"/><polygon points="117.9,109.2 149.1,127.2 149.1,110.4 117.9,92.4" fill="#dfeaf3" stroke="#223a59" stroke-width="2.6" stroke-linejoin="round"/><polygon points="155.3,123.6 149.1,127.2 149.1,110.4 155.3,106.8" fill="#ffffff" stroke="#223a59" stroke-width="2.6" stroke-linejoin="round"/><polygon points="124.2,88.8 155.3,106.8 149.1,110.4 117.9,92.4" fill="#ffffff" stroke="#223a59" stroke-width="2.6" stroke-linejoin="round"/><polygon points="82.6,124.8 88.8,128.4 88.8,111.6 82.6,108.0" fill="#dfeaf3" stroke="#223a59" stroke-width="2.6" stroke-linejoin="round"/><polygon points="122.1,109.2 88.8,128.4 88.8,111.6 122.1,92.4" fill="#ffffff" stroke="#223a59" stroke-width="2.6" stroke-linejoin="round"/><polygon points="115.8,88.8 122.1,92.4 88.8,111.6 82.6,108.0" fill="#ffffff" stroke="#223a59" stroke-width="2.6" stroke-linejoin="round"/><polygon points="107.5,108.0 120.0,115.2 120.0,79.2 107.5,72.0" fill="#dfeaf3" stroke="#223a59" stroke-width="2.6" stroke-linejoin="round"/><polygon points="132.5,108.0 120.0,115.2 120.0,79.2 132.5,72.0" fill="#ffffff" stroke="#223a59" stroke-width="2.6" stroke-linejoin="round"/><polygon points="120.0,64.8 132.5,72.0 120.0,79.2 107.5,72.0" fill="#ffffff" stroke="#223a59" stroke-width="2.6" stroke-linejoin="round"/><polygon points="107.5,72.0 120.0,79.2 120.0,55.2" fill="#dc6e5c" stroke="#222.6a59" stroke-width="3" stroke-linejoin="round" stroke-linecap="round"/><polygon points="132.5,72.0 120.0,79.2 120.0,55.2" fill="#ef8a76" stroke="#222.6a59" stroke-width="3" stroke-linejoin="round" stroke-linecap="round"/><polygon points="111.9,92.5 115.6,94.7 115.6,85.7 111.9,83.5" fill="#223a59" /><polygon points="101.3,128.4 120.0,139.2 120.0,91.2 101.3,80.4" fill="#dfeaf3" stroke="#223a59" stroke-width="2.6" stroke-linejoin="round"/><polygon points="138.7,128.4 120.0,139.2 120.0,91.2 138.7,80.4" fill="#ffffff" stroke="#223a59" stroke-width="2.6" stroke-linejoin="round"/><polygon points="120.0,69.6 138.7,80.4 120.0,91.2 101.3,80.4" fill="#ffffff" stroke="#223a59" stroke-width="2.6" stroke-linejoin="round"/><polygon points="101.3,80.4 120.0,91.2 120.0,56.4" fill="#dc6e5c" stroke="#222.6a59" stroke-width="3" stroke-linejoin="round" stroke-linecap="round"/><polygon points="138.7,80.4 120.0,91.2 120.0,56.4" fill="#ef8a76" stroke="#222.6a59" stroke-width="3" stroke-linejoin="round" stroke-linecap="round"/><polygon points="107.8,108.2 113.5,111.4 113.5,99.4 107.8,96.2" fill="#223a59" /><polygon points="140.8,127.2 153.3,134.4 153.3,105.6 140.8,98.4" fill="#dfeaf3" stroke="#223a59" stroke-width="2.6" stroke-linejoin="round"/><polygon points="165.7,127.2 153.3,134.4 153.3,105.6 165.7,98.4" fill="#ffffff" stroke="#223a59" stroke-width="2.6" stroke-linejoin="round"/><polygon points="153.3,91.2 165.7,98.4 153.3,105.6 140.8,98.4" fill="#ffffff" stroke="#223a59" stroke-width="2.6" stroke-linejoin="round"/><polygon points="140.8,98.4 153.3,105.6 153.3,84.0" fill="#dc6e5c" stroke="#222.6a59" stroke-width="3" stroke-linejoin="round" stroke-linecap="round"/><polygon points="165.7,98.4 153.3,105.6 153.3,84.0" fill="#ef8a76" stroke="#222.6a59" stroke-width="3" stroke-linejoin="round" stroke-linecap="round"/><polygon points="145.1,115.3 148.9,117.5 148.9,110.3 145.1,108.1" fill="#223a59" /><polygon points="72.2,128.4 84.7,135.6 84.7,109.2 72.2,102.0" fill="#dfeaf3" stroke="#223a59" stroke-width="2.6" stroke-linejoin="round"/><polygon points="97.1,128.4 84.7,135.6 84.7,109.2 97.1,102.0" fill="#ffffff" stroke="#223a59" stroke-width="2.6" stroke-linejoin="round"/><polygon points="84.7,94.8 97.1,102.0 84.7,109.2 72.2,102.0" fill="#ffffff" stroke="#223a59" stroke-width="2.6" stroke-linejoin="round"/><polygon points="72.2,102.0 84.7,109.2 84.7,87.6" fill="#dc6e5c" stroke="#222.6a59" stroke-width="3" stroke-linejoin="round" stroke-linecap="round"/><polygon points="97.1,102.0 84.7,109.2 84.7,87.6" fill="#ef8a76" stroke="#222.6a59" stroke-width="3" stroke-linejoin="round" stroke-linecap="round"/><polygon points="76.6,117.7 80.3,119.9 80.3,113.3 76.6,111.1" fill="#223a59" /><polygon points="133.5,131.4 125.2,136.2 125.2,121.8 129.4,114.6 133.5,117.0" fill="#223a59" /><path d="M120.0 56.4L120.0 42.4" stroke="#223a59" stroke-width="2.4" fill="none" /><polygon points="120.0,42.4 131.0,46.4 120.0,50.4" fill="#d9a94e" stroke="#222.2a59" stroke-width="3" stroke-linejoin="round" stroke-linecap="round"/><path d="M122.1 150.0L122.1 142.0" stroke="#223a59" stroke-width="2.4" fill="none" /><circle cx="122.1" cy="137.0" r="7" fill="#3fa58d" stroke="#222.4a59" stroke-width="3" stroke-linejoin="round" stroke-linecap="round"/><path d="M176 44a22 22 0 1 0 18 33 17 17 0 0 1-18-33z" fill="#f6d98f" stroke="#222.6a59" stroke-width="3" stroke-linejoin="round" stroke-linecap="round"/><path d="M52 49l2.7 6.3 6.3 2.7-6.3 2.7-2.7 6.3-2.7-6.3-6.3-2.7 6.3-2.7z" fill="#f6d98f"/><path d="M84 34l1.8 4.2 4.2 1.8-4.2 1.8-1.8 4.2-1.8-4.2-4.2-1.8 4.2-1.8z" fill="#f6d98f"/><path d="M196 98l1.8 4.2 4.2 1.8-4.2 1.8-1.8 4.2-1.8-4.2-4.2-1.8 4.2-1.8z" fill="#f6d98f"/><path d="M44 99l1.5 3.5 3.5 1.5-3.5 1.5-1.5 3.5-1.5-3.5-3.5-1.5 3.5-1.5z" fill="#f6d98f"/><path d="M150 32l1.2 2.8 2.8 1.2-2.8 1.2-1.2 2.8-1.2-2.8-2.8-1.2 2.8-1.2z" fill="#f6d98f"/><path d="M36 82h26a8 8 0 0 0-6-12 10 10 0 0 0-18 3 6 6 0 0 0-2 9z" fill="#5d7fa8" opacity=".9"/></g>
</svg>